<?xml version="1.0" standalone="no"?>
<!DOCTYPE svg PUBLIC "-//W3C//DTD SVG 20010904//EN"
 "http://www.w3.org/TR/2001/REC-SVG-20010904/DTD/svg10.dtd">
<svg version="1.0" xmlns="http://www.w3.org/2000/svg"
 width="580.000000pt" height="580.000000pt" viewBox="0 0 580.000000 580.000000"
 preserveAspectRatio="xMidYMid meet">

<g transform="translate(0.000000,580.000000) scale(0.100000,-0.100000)"
fill="#000000" stroke="none">
<path d="M1930 4131 l-145 -78 -3 -333 c-1 -184 0 -332 2 -329 3 2 47 123 99
269 52 146 117 329 145 408 28 78 50 142 49 142 -1 0 -67 -35 -147 -79z"/>
<path d="M2220 4207 c0 -2 38 -112 85 -243 47 -132 113 -315 146 -409 33 -93
62 -171 64 -174 3 -2 5 147 5 332 l0 335 -87 48 c-49 26 -116 62 -150 81 -35
19 -63 33 -63 30z"/>
<path d="M3555 4174 c-139 -62 -280 -124 -282 -124 -2 0 -3 -153 -3 -340 0
-187 4 -340 8 -340 8 0 178 75 304 134 67 32 61 32 207 -36 116 -55 211 -98
217 -98 3 0 3 154 2 342 l-3 342 -175 78 c-96 43 -179 78 -185 78 -5 0 -46
-17 -90 -36z"/>
<path d="M3550 3141 c-47 -21 -129 -59 -182 -84 l-98 -46 0 -340 0 -339 113
50 c61 27 145 65 186 83 53 24 81 31 95 25 12 -4 93 -40 180 -79 87 -39 160
-71 162 -71 2 0 4 152 4 339 l0 338 -82 38 c-236 109 -273 125 -283 125 -5 0
-48 -18 -95 -39z"/>
<path d="M1782 2608 l3 -433 28 -80 c47 -132 85 -193 182 -291 77 -78 104 -98
185 -138 164 -80 159 -79 653 -84 l437 -4 0 371 0 370 -346 3 -346 3 -29 33
-29 32 0 325 0 325 -371 0 -370 0 3 -432z"/>
</g>
</svg>
